# xmcd
#
# Track frame offsets: 
#        150
#        4036
#        29451
#        43333
#        56784
#        71406
#        90605
#        99985
#        114980
#        132145
#        140058
#        154299
#        164759
#        180821
#        195552
#
# Disc length: 2900 seconds
#
# Revision: 0
# Processed by: cddbd v1.5.2PL0 Copyright (c) Steve Scherf et al.
# Submitted via: ExactAudioCopyFreeDBPlugin 1.0
#
DISCID=ca0b520f
DTITLE=The Suffers - Everything Here
DYEAR=2018
DGENRE=Soul
TTITLE0=Ode to Houston (ft Paul Wall)
TTITLE1=Think I Love You
TTITLE2=Do Whatever
TTITLE3=The One About Sace
TTITLE4=All I Wanna Do
TTITLE5=Sure to Remain
TTITLE6=Charlotte Intermission
TTITLE7=After the Storm
TTITLE8=What You Said
TTITLE9=A Word from Our Mammas
TTITLE10=Mammas
TTITLE11=Bernard's Interlude (ft Bun B)
TTITLE12=Everything Here
TTITLE13=You Only Call
TTITLE14=Won't Be Here Tomorrow
EXTD=
EXTT0=
EXTT1=
EXTT2=
EXTT3=
EXTT4=
EXTT5=
EXTT6=
EXTT7=
EXTT8=
EXTT9=
EXTT10=
EXTT11=
EXTT12=
EXTT13=
EXTT14=
PLAYORDER=
